<svg width="125" height="56" viewBox="0 0 125 56" fill="none" xmlns="http://www.w3.org/2000/svg">
<path fill-rule="evenodd" clip-rule="evenodd" d="M68 36C62.4772 36 58 40.4772 58 46C58 51.5228 62.4772 56 68 56H115C120.523 56 125 51.5228 125 46C125 40.4772 120.523 36 115 36H68ZM72.198 43.434V51H73.979V43.434H76.891V41.861H69.286V43.434H72.198ZM77.4473 50.701C77.9066 50.987 78.4223 51.13 78.9943 51.13C79.4449 51.13 79.8479 51.039 80.2033 50.857C80.4395 50.7302 80.6431 50.5748 80.8143 50.3906V51H82.5043V44.721H80.8143V45.3246C80.6431 45.1385 80.4395 44.985 80.2033 44.864C79.8479 44.682 79.4449 44.591 78.9943 44.591C78.4223 44.591 77.9066 44.734 77.4473 45.02C76.9879 45.306 76.6283 45.696 76.3683 46.19C76.1083 46.684 75.9783 47.243 75.9783 47.867C75.9783 48.4823 76.1083 49.037 76.3683 49.531C76.6283 50.025 76.9879 50.415 77.4473 50.701ZM80.4633 49.089C80.1686 49.401 79.7829 49.557 79.3063 49.557C78.9943 49.557 78.7169 49.4877 78.4743 49.349C78.2403 49.2017 78.0539 49.0023 77.9153 48.751C77.7853 48.491 77.7203 48.192 77.7203 47.854C77.7203 47.5247 77.7853 47.2343 77.9153 46.983C78.0539 46.723 78.2403 46.5237 78.4743 46.385C78.7169 46.2377 78.9943 46.164 79.3063 46.164C79.6269 46.164 79.9043 46.2377 80.1383 46.385C80.3809 46.5237 80.5673 46.723 80.6973 46.983C80.8359 47.2343 80.9053 47.5247 80.9053 47.854C80.9053 48.3567 80.7579 48.7683 80.4633 49.089ZM85.0898 50.701C85.5492 50.987 86.0648 51.13 86.6368 51.13C87.0875 51.13 87.4905 51.039 87.8458 50.857C88.0821 50.7302 88.2857 50.5748 88.4568 50.3906V51H90.1468V44.721H88.4568V45.3246C88.2857 45.1385 88.0821 44.985 87.8458 44.864C87.4905 44.682 87.0875 44.591 86.6368 44.591C86.0648 44.591 85.5492 44.734 85.0898 45.02C84.6305 45.306 84.2708 45.696 84.0108 46.19C83.7508 46.684 83.6208 47.243 83.6208 47.867C83.6208 48.4823 83.7508 49.037 84.0108 49.531C84.2708 50.025 84.6305 50.415 85.0898 50.701ZM88.1058 49.089C87.8112 49.401 87.4255 49.557 86.9488 49.557C86.6368 49.557 86.3595 49.4877 86.1168 49.349C85.8828 49.2017 85.6965 49.0023 85.5578 48.751C85.4278 48.491 85.3628 48.192 85.3628 47.854C85.3628 47.5247 85.4278 47.2343 85.5578 46.983C85.6965 46.723 85.8828 46.5237 86.1168 46.385C86.3595 46.2377 86.6368 46.164 86.9488 46.164C87.2695 46.164 87.5468 46.2377 87.7808 46.385C88.0235 46.5237 88.2098 46.723 88.3398 46.983C88.4785 47.2343 88.5478 47.5247 88.5478 47.854C88.5478 48.3567 88.4005 48.7683 88.1058 49.089ZM92.7584 51C93.1051 51.0953 93.4561 51.143 93.8114 51.143C94.5741 51.143 95.1764 50.9653 95.6184 50.61C96.0604 50.246 96.2814 49.7563 96.2814 49.141C96.2814 48.7597 96.2034 48.4477 96.0474 48.205C95.9001 47.9623 95.7051 47.7673 95.4624 47.62C95.2284 47.4727 94.9771 47.36 94.7084 47.282C94.4484 47.1953 94.1971 47.1217 93.9544 47.061C93.7117 46.9917 93.5124 46.9137 93.3564 46.827C93.2091 46.7403 93.1354 46.619 93.1354 46.463C93.1354 46.3243 93.2004 46.216 93.3304 46.138C93.4691 46.06 93.6641 46.021 93.9154 46.021C94.1927 46.021 94.4484 46.073 94.6824 46.177C94.9251 46.281 95.1417 46.45 95.3324 46.684L96.3594 45.657C96.0821 45.293 95.7311 45.02 95.3064 44.838C94.8904 44.656 94.4224 44.565 93.9024 44.565C93.4084 44.565 92.9794 44.6473 92.6154 44.812C92.2514 44.9767 91.9697 45.2063 91.7704 45.501C91.5797 45.7957 91.4844 46.1423 91.4844 46.541C91.4844 46.9223 91.5581 47.2343 91.7054 47.477C91.8614 47.711 92.0607 47.8973 92.3034 48.036C92.5461 48.166 92.7974 48.2743 93.0574 48.361C93.3261 48.439 93.5817 48.5127 93.8244 48.582C94.0671 48.6427 94.2621 48.7207 94.4094 48.816C94.5654 48.9113 94.6434 49.0457 94.6434 49.219C94.6434 49.375 94.5697 49.492 94.4224 49.57C94.2837 49.648 94.0757 49.687 93.7984 49.687C93.4517 49.687 93.1354 49.6263 92.8494 49.505C92.5634 49.3837 92.3121 49.2017 92.0954 48.959L91.0814 49.986C91.2894 50.2287 91.5364 50.4367 91.8224 50.61C92.1084 50.7747 92.4204 50.9047 92.7584 51ZM99.1328 47.9361L101.434 51H103.514L100.919 47.7065L103.384 44.721H101.421L99.1328 47.5995V41.601H97.4298V51H99.1328V47.9361ZM104.298 41.601V51H106.001V41.601H104.298ZM110.695 51.039L109.551 53.626H107.744L109.24 50.46L106.86 44.721H108.706L110.142 48.7067L111.631 44.721H113.49L110.695 51.039Z" fill="black"/>
<path d="M50.56 30V25.744H55.296C56.192 25.744 56.896 25.4987 57.408 25.008C57.9413 24.496 58.208 23.8347 58.208 23.024C58.208 22.4907 58.0907 22.0213 57.856 21.616C57.6213 21.1893 57.28 20.8693 56.832 20.656C56.4053 20.4213 55.8933 20.304 55.296 20.304H50.56V16.176H54.944C55.6907 16.176 56.2987 15.9947 56.768 15.632C57.2587 15.248 57.504 14.6613 57.504 13.872C57.504 13.0827 57.2587 12.5067 56.768 12.144C56.2987 11.76 55.6907 11.568 54.944 11.568H50.56V7.312H56.32C57.728 7.312 58.944 7.57867 59.968 8.112C61.0133 8.64533 61.8133 9.36 62.368 10.256C62.9227 11.152 63.2 12.1653 63.2 13.296C63.2 14.8107 62.6773 16.0693 61.632 17.072C60.608 18.0533 59.1147 18.6613 57.152 18.896V16.976C59.328 17.232 60.992 17.936 62.144 19.088C63.296 20.2187 63.872 21.648 63.872 23.376C63.872 24.656 63.552 25.7973 62.912 26.8C62.272 27.7813 61.3653 28.56 60.192 29.136C59.04 29.712 57.6747 30 56.096 30H50.56ZM46.016 30V7.312H51.648V30H46.016ZM72.9725 30.32C71.5218 30.32 70.2312 29.968 69.1005 29.264C67.9698 28.56 67.0845 27.6 66.4445 26.384C65.8045 25.1467 65.4845 23.7493 65.4845 22.192C65.4845 20.6133 65.8045 19.2053 66.4445 17.968C67.0845 16.7307 67.9698 15.7707 69.1005 15.088C70.2312 14.384 71.5218 14.032 72.9725 14.032C73.9538 14.032 74.8498 14.2133 75.6605 14.576C76.4712 14.9173 77.1325 15.408 77.6445 16.048C78.1778 16.688 78.4978 17.4133 78.6045 18.224V26.096C78.4978 26.928 78.1778 27.664 77.6445 28.304C77.1325 28.9227 76.4712 29.4133 75.6605 29.776C74.8498 30.1387 73.9538 30.32 72.9725 30.32ZM74.1565 25.36C75.0738 25.36 75.8098 25.0613 76.3645 24.464C76.9405 23.8667 77.2285 23.0987 77.2285 22.16C77.2285 21.5413 77.1005 20.9973 76.8445 20.528C76.5885 20.0587 76.2258 19.6853 75.7565 19.408C75.3085 19.1307 74.7858 18.992 74.1885 18.992C73.5912 18.992 73.0578 19.1307 72.5885 19.408C72.1405 19.6853 71.7778 20.0693 71.5005 20.56C71.2445 21.0293 71.1165 21.5627 71.1165 22.16C71.1165 22.7787 71.2445 23.3333 71.5005 23.824C71.7565 24.2933 72.1192 24.6667 72.5885 24.944C73.0578 25.2213 73.5805 25.36 74.1565 25.36ZM77.0045 30V25.808L77.8045 21.968L77.0045 18.192V14.352H82.4765V30H77.0045ZM95.8698 30V21.168C95.8698 20.4427 95.6564 19.8773 95.2298 19.472C94.8031 19.0453 94.2591 18.832 93.5978 18.832C93.1498 18.832 92.7444 18.928 92.3818 19.12C92.0404 19.312 91.7738 19.5787 91.5818 19.92C91.3898 20.2613 91.2938 20.6773 91.2938 21.168L89.1178 20.144C89.1178 18.8853 89.3951 17.808 89.9498 16.912C90.5044 15.9947 91.2618 15.2907 92.2218 14.8C93.2031 14.288 94.3124 14.032 95.5498 14.032C96.6804 14.032 97.6831 14.2987 98.5578 14.832C99.4538 15.344 100.158 16.0373 100.67 16.912C101.182 17.7867 101.438 18.7787 101.438 19.888V30H95.8698ZM85.7258 30V14.352H91.2938V30H85.7258ZM114.43 30L109.502 21.808L114.398 14.352H120.51L114.43 22.768L114.59 20.72L120.83 30H114.43ZM104.382 30V6.672H109.95V30H104.382Z" fill="black"/>
<path fill-rule="evenodd" clip-rule="evenodd" d="M0 18C0 8.05887 8.05887 0 18 0V0C27.9411 0 36 8.05887 36 18V18C36 27.9411 27.9411 36 18 36V36C8.05887 36 0 27.9411 0 18V18ZM9 26C9 25.4477 9.44771 25 10 25H25.3C25.8523 25 26.3 25.4477 26.3 26C26.3 26.5523 25.8523 27 25.3 27H10C9.44771 27 9 26.5523 9 26ZM13.5483 16.6502C13.5483 16.0979 13.1006 15.6502 12.5483 15.6502C11.9961 15.6502 11.5483 16.0979 11.5483 16.6502V22.6002C11.5483 23.1525 11.9961 23.6002 12.5483 23.6002C13.1006 23.6002 13.5483 23.1525 13.5483 22.6002V16.6502ZM15.9517 15.6502C16.5039 15.6502 16.9517 16.0979 16.9517 16.6502V22.6002C16.9517 23.1525 16.5039 23.6002 15.9517 23.6002C15.3994 23.6002 14.9517 23.1525 14.9517 22.6002V16.6502C14.9517 16.0979 15.3994 15.6502 15.9517 15.6502ZM20.3467 16.6502C20.3467 16.0979 19.899 15.6502 19.3467 15.6502C18.7944 15.6502 18.3467 16.0979 18.3467 16.6502V22.6002C18.3467 23.1525 18.7944 23.6002 19.3467 23.6002C19.899 23.6002 20.3467 23.1525 20.3467 22.6002V16.6502ZM22.75 15.6502C23.3023 15.6502 23.75 16.0979 23.75 16.6502V22.6002C23.75 23.1525 23.3023 23.6002 22.75 23.6002C22.1977 23.6002 21.75 23.1525 21.75 22.6002V16.6502C21.75 16.0979 22.1977 15.6502 22.75 15.6502ZM18.1767 8.152C17.8524 7.94933 17.441 7.94933 17.1167 8.152L10.3167 12.402C9.93838 12.6384 9.76245 13.0969 9.88543 13.5257C10.0084 13.9545 10.4006 14.25 10.8467 14.25H24.4467C24.8928 14.25 25.2849 13.9545 25.4079 13.5257C25.5309 13.0969 25.355 12.6384 24.9767 12.402L18.1767 8.152ZM18.1503 10.494C18.9599 11 18.6014 12.25 17.6467 12.25V12.25C16.692 12.25 16.3335 11 17.1431 10.494V10.494C17.4512 10.3014 17.8422 10.3014 18.1503 10.494V10.494Z" fill="black"/>
</svg>
