<svg width="132" height="59" viewBox="0 0 132 59" fill="none" xmlns="http://www.w3.org/2000/svg">
<path fill-rule="evenodd" clip-rule="evenodd" d="M75 39C69.4772 39 65 43.4772 65 49C65 54.5228 69.4772 59 75 59H122C127.523 59 132 54.5228 132 49C132 43.4772 127.523 39 122 39H75ZM79.198 46.434V54H80.979V46.434H83.891V44.861H76.286V46.434H79.198ZM84.4473 53.701C84.9066 53.987 85.4223 54.13 85.9943 54.13C86.4449 54.13 86.8479 54.039 87.2033 53.857C87.4395 53.7302 87.6431 53.5748 87.8143 53.3906V54H89.5043V47.721H87.8143V48.3246C87.6431 48.1385 87.4395 47.985 87.2033 47.864C86.8479 47.682 86.4449 47.591 85.9943 47.591C85.4223 47.591 84.9066 47.734 84.4473 48.02C83.9879 48.306 83.6283 48.696 83.3683 49.19C83.1083 49.684 82.9783 50.243 82.9783 50.867C82.9783 51.4823 83.1083 52.037 83.3683 52.531C83.6283 53.025 83.9879 53.415 84.4473 53.701ZM87.4633 52.089C87.1686 52.401 86.7829 52.557 86.3063 52.557C85.9943 52.557 85.7169 52.4877 85.4743 52.349C85.2403 52.2017 85.0539 52.0023 84.9153 51.751C84.7853 51.491 84.7203 51.192 84.7203 50.854C84.7203 50.5247 84.7853 50.2343 84.9153 49.983C85.0539 49.723 85.2403 49.5237 85.4743 49.385C85.7169 49.2377 85.9943 49.164 86.3063 49.164C86.6269 49.164 86.9043 49.2377 87.1383 49.385C87.3809 49.5237 87.5673 49.723 87.6973 49.983C87.8359 50.2343 87.9053 50.5247 87.9053 50.854C87.9053 51.3567 87.7579 51.7683 87.4633 52.089ZM92.0898 53.701C92.5492 53.987 93.0648 54.13 93.6368 54.13C94.0875 54.13 94.4905 54.039 94.8458 53.857C95.0821 53.7302 95.2857 53.5748 95.4568 53.3906V54H97.1468V47.721H95.4568V48.3246C95.2857 48.1385 95.0821 47.985 94.8458 47.864C94.4905 47.682 94.0875 47.591 93.6368 47.591C93.0648 47.591 92.5492 47.734 92.0898 48.02C91.6305 48.306 91.2708 48.696 91.0108 49.19C90.7508 49.684 90.6208 50.243 90.6208 50.867C90.6208 51.4823 90.7508 52.037 91.0108 52.531C91.2708 53.025 91.6305 53.415 92.0898 53.701ZM95.1058 52.089C94.8112 52.401 94.4255 52.557 93.9488 52.557C93.6368 52.557 93.3595 52.4877 93.1168 52.349C92.8828 52.2017 92.6965 52.0023 92.5578 51.751C92.4278 51.491 92.3628 51.192 92.3628 50.854C92.3628 50.5247 92.4278 50.2343 92.5578 49.983C92.6965 49.723 92.8828 49.5237 93.1168 49.385C93.3595 49.2377 93.6368 49.164 93.9488 49.164C94.2695 49.164 94.5468 49.2377 94.7808 49.385C95.0235 49.5237 95.2098 49.723 95.3398 49.983C95.4785 50.2343 95.5478 50.5247 95.5478 50.854C95.5478 51.3567 95.4005 51.7683 95.1058 52.089ZM99.7584 54C100.105 54.0953 100.456 54.143 100.811 54.143C101.574 54.143 102.176 53.9653 102.618 53.61C103.06 53.246 103.281 52.7563 103.281 52.141C103.281 51.7597 103.203 51.4477 103.047 51.205C102.9 50.9623 102.705 50.7673 102.462 50.62C102.228 50.4727 101.977 50.36 101.708 50.282C101.448 50.1953 101.197 50.1217 100.954 50.061C100.712 49.9917 100.512 49.9137 100.356 49.827C100.209 49.7403 100.135 49.619 100.135 49.463C100.135 49.3243 100.2 49.216 100.33 49.138C100.469 49.06 100.664 49.021 100.915 49.021C101.193 49.021 101.448 49.073 101.682 49.177C101.925 49.281 102.142 49.45 102.332 49.684L103.359 48.657C103.082 48.293 102.731 48.02 102.306 47.838C101.89 47.656 101.422 47.565 100.902 47.565C100.408 47.565 99.9794 47.6473 99.6154 47.812C99.2514 47.9767 98.9697 48.2063 98.7704 48.501C98.5797 48.7957 98.4844 49.1423 98.4844 49.541C98.4844 49.9223 98.5581 50.2343 98.7054 50.477C98.8614 50.711 99.0607 50.8973 99.3034 51.036C99.5461 51.166 99.7974 51.2743 100.057 51.361C100.326 51.439 100.582 51.5127 100.824 51.582C101.067 51.6427 101.262 51.7207 101.409 51.816C101.565 51.9113 101.643 52.0457 101.643 52.219C101.643 52.375 101.57 52.492 101.422 52.57C101.284 52.648 101.076 52.687 100.798 52.687C100.452 52.687 100.135 52.6263 99.8494 52.505C99.5634 52.3837 99.3121 52.2017 99.0954 51.959L98.0814 52.986C98.2894 53.2287 98.5364 53.4367 98.8224 53.61C99.1084 53.7747 99.4204 53.9047 99.7584 54ZM106.133 50.9361L108.434 54H110.514L107.919 50.7065L110.384 47.721H108.421L106.133 50.5995V44.601H104.43V54H106.133V50.9361ZM111.298 44.601V54H113.001V44.601H111.298ZM117.695 54.039L116.551 56.626H114.744L116.24 53.46L113.86 47.721H115.706L117.142 51.7067L118.631 47.721H120.49L117.695 54.039Z" fill="black"/>
<path d="M56.992 30.352C55.264 30.352 53.664 30.064 52.192 29.488C50.7413 28.8907 49.4613 28.0587 48.352 26.992C47.264 25.9253 46.4107 24.688 45.792 23.28C45.1947 21.8507 44.896 20.304 44.896 18.64C44.896 16.9547 45.2053 15.408 45.824 14C46.464 12.5707 47.3493 11.3333 48.48 10.288C49.6107 9.22133 50.9227 8.4 52.416 7.824C53.9307 7.22667 55.5413 6.928 57.248 6.928C59.2747 6.928 61.1093 7.29067 62.752 8.016C64.3947 8.72 65.728 9.70133 66.752 10.96L62.912 14.8C62.144 13.8827 61.3013 13.2 60.384 12.752C59.4667 12.2827 58.4 12.048 57.184 12.048C55.9467 12.048 54.8373 12.3253 53.856 12.88C52.896 13.4133 52.128 14.1707 51.552 15.152C50.976 16.1333 50.688 17.2853 50.688 18.608C50.688 19.9307 50.9547 21.0933 51.488 22.096C52.0427 23.0987 52.7893 23.8773 53.728 24.432C54.688 24.9867 55.7867 25.264 57.024 25.264C58.2613 25.264 59.3067 25.0293 60.16 24.56C61.0347 24.0907 61.696 23.408 62.144 22.512C62.6133 21.616 62.848 20.5493 62.848 19.312L66.72 21.808L56.384 21.552V16.88H68.608V17.744C68.608 20.4533 68.1173 22.7467 67.136 24.624C66.1547 26.5013 64.7893 27.9307 63.04 28.912C61.312 29.872 59.296 30.352 56.992 30.352ZM78.6565 30.352C76.9712 30.352 75.4672 30 74.1445 29.296C72.8432 28.5707 71.8085 27.5893 71.0405 26.352C70.2725 25.0933 69.8885 23.6853 69.8885 22.128C69.8885 20.5707 70.2618 19.184 71.0085 17.968C71.7765 16.7307 72.8218 15.76 74.1445 15.056C75.4672 14.3307 76.9605 13.968 78.6245 13.968C80.2885 13.968 81.7712 14.3307 83.0725 15.056C84.3952 15.76 85.4405 16.7307 86.2085 17.968C86.9765 19.184 87.3605 20.5707 87.3605 22.128C87.3605 23.6853 86.9765 25.0933 86.2085 26.352C85.4618 27.5893 84.4272 28.5707 83.1045 29.296C81.8032 30 80.3205 30.352 78.6565 30.352ZM78.6245 25.392C79.2432 25.392 79.7765 25.264 80.2245 25.008C80.6938 24.7307 81.0565 24.3467 81.3125 23.856C81.5685 23.3653 81.6965 22.8 81.6965 22.16C81.6965 21.52 81.5578 20.9653 81.2805 20.496C81.0245 20.0053 80.6725 19.632 80.2245 19.376C79.7765 19.0987 79.2432 18.96 78.6245 18.96C78.0272 18.96 77.4938 19.0987 77.0245 19.376C76.5552 19.6533 76.1925 20.0373 75.9365 20.528C75.6805 20.9973 75.5525 21.552 75.5525 22.192C75.5525 22.8107 75.6805 23.3653 75.9365 23.856C76.1925 24.3467 76.5552 24.7307 77.0245 25.008C77.4938 25.264 78.0272 25.392 78.6245 25.392ZM96.0975 30.32C94.6468 30.32 93.3562 29.968 92.2255 29.264C91.0948 28.56 90.2095 27.6 89.5695 26.384C88.9295 25.1467 88.6095 23.7493 88.6095 22.192C88.6095 20.6133 88.9295 19.2053 89.5695 17.968C90.2095 16.7307 91.0948 15.7707 92.2255 15.088C93.3562 14.384 94.6468 14.032 96.0975 14.032C97.0788 14.032 97.9748 14.2133 98.7855 14.576C99.5962 14.9173 100.258 15.408 100.77 16.048C101.303 16.688 101.623 17.4133 101.73 18.224V26.096C101.623 26.928 101.303 27.664 100.77 28.304C100.258 28.9227 99.5962 29.4133 98.7855 29.776C97.9748 30.1387 97.0788 30.32 96.0975 30.32ZM97.2815 25.36C98.1988 25.36 98.9348 25.0613 99.4895 24.464C100.066 23.8667 100.354 23.0987 100.354 22.16C100.354 21.5413 100.226 20.9973 99.9695 20.528C99.7135 20.0587 99.3508 19.6853 98.8815 19.408C98.4335 19.1307 97.9108 18.992 97.3135 18.992C96.7162 18.992 96.1828 19.1307 95.7135 19.408C95.2655 19.6853 94.9028 20.0693 94.6255 20.56C94.3695 21.0293 94.2415 21.5627 94.2415 22.16C94.2415 22.7787 94.3695 23.3333 94.6255 23.824C94.8815 24.2933 95.2442 24.6667 95.7135 24.944C96.1828 25.2213 96.7055 25.36 97.2815 25.36ZM100.13 30V25.808L100.93 21.968L100.13 18.192V14.352H105.602V30H100.13ZM108.851 30V6.672H114.419V30H108.851ZM123.647 30.448C122.687 30.448 121.737 30.32 120.799 30.064C119.881 29.808 119.017 29.4667 118.207 29.04C117.417 28.592 116.745 28.08 116.191 27.504L119.231 24.4C119.743 24.9333 120.351 25.3493 121.055 25.648C121.78 25.9467 122.548 26.096 123.359 26.096C123.828 26.096 124.18 26.032 124.415 25.904C124.671 25.776 124.799 25.5947 124.799 25.36C124.799 25.0187 124.617 24.7627 124.255 24.592C123.913 24.4 123.455 24.24 122.879 24.112C122.324 23.9627 121.737 23.792 121.119 23.6C120.5 23.3867 119.903 23.1093 119.327 22.768C118.751 22.4267 118.281 21.9467 117.919 21.328C117.577 20.7093 117.407 19.92 117.407 18.96C117.407 17.9573 117.673 17.0827 118.207 16.336C118.761 15.568 119.529 14.9707 120.511 14.544C121.492 14.096 122.644 13.872 123.967 13.872C125.311 13.872 126.591 14.1067 127.807 14.576C129.023 15.024 130.004 15.7067 130.751 16.624L127.679 19.728C127.167 19.152 126.601 18.7573 125.983 18.544C125.364 18.3093 124.799 18.192 124.286 18.192C123.796 18.192 123.444 18.2667 123.231 18.416C123.017 18.544 122.911 18.7253 122.911 18.96C122.911 19.2373 123.081 19.4613 123.423 19.632C123.785 19.8027 124.244 19.9627 124.799 20.112C125.375 20.24 125.961 20.4107 126.559 20.624C127.177 20.8373 127.764 21.136 128.319 21.52C128.895 21.8827 129.353 22.3733 129.695 22.992C130.057 23.6107 130.239 24.4107 130.239 25.392C130.239 26.9493 129.641 28.1867 128.447 29.104C127.252 30 125.652 30.448 123.647 30.448Z" fill="black"/>
<path fill-rule="evenodd" clip-rule="evenodd" d="M36 18C36 8.05887 27.9411 0 18 0V0C8.05887 0 0 8.05887 0 18V18C0 27.9411 8.05887 36 18 36V36C27.9411 36 36 27.9411 36 18V18ZM9 18C9 13.0294 13.0294 9 18 9C22.9706 9 27 13.0294 27 18C27 22.9706 22.9706 27 18 27C13.0294 27 9 22.9706 9 18ZM18 7C11.9249 7 7 11.9249 7 18C7 24.0751 11.9249 29 18 29C24.0751 29 29 24.0751 29 18C29 11.9249 24.0751 7 18 7ZM18 13C15.2386 13 13 15.2386 13 18C13 20.7614 15.2386 23 18 23C20.7614 23 23 20.7614 23 18C23 15.2386 20.7614 13 18 13ZM11 18C11 14.134 14.134 11 18 11C21.866 11 25 14.134 25 18C25 21.866 21.866 25 18 25C14.134 25 11 21.866 11 18ZM17 18C17 17.4477 17.4477 17 18 17C18.5523 17 19 17.4477 19 18C19 18.5523 18.5523 19 18 19C17.4477 19 17 18.5523 17 18ZM18 15C16.3431 15 15 16.3431 15 18C15 19.6569 16.3431 21 18 21C19.6569 21 21 19.6569 21 18C21 16.3431 19.6569 15 18 15Z" fill="black"/>
</svg>
